<svg width="48" height="48" viewBox="0 0 48 48" fill="none" xmlns="http://www.w3.org/2000/svg">
<path d="M8 38V35H12.2V19.7C12.2 16.9 13.025 14.4083 14.675 12.225C16.325 10.0417 18.5 8.66667 21.2 8.1V6.65C21.2 5.88333 21.475 5.25 22.025 4.75C22.575 4.25 23.2333 4 24 4C24.7667 4 25.425 4.25 25.975 4.75C26.525 5.25 26.8 5.88333 26.8 6.65V8.1C29.5 8.66667 31.6833 10.0417 33.35 12.225C35.0167 14.4083 35.85 16.9 35.85 19.7V35H40V38H8ZM24 44C22.9333 44 22 43.6083 21.2 42.825C20.4 42.0417 20 41.1 20 40H28C28 41.1 27.6083 42.0417 26.825 42.825C26.0417 43.6083 25.1 44 24 44ZM15.2 35H32.85V19.7C32.85 17.2333 32 15.1333 30.3 13.4C28.6 11.6667 26.5167 10.8 24.05 10.8C21.5833 10.8 19.4917 11.6667 17.775 13.4C16.0583 15.1333 15.2 17.2333 15.2 19.7V35Z" fill="#F1F1F1"/>
</svg>
