<svg width="32" height="32" viewBox="0 0 32 32" fill="none" xmlns="http://www.w3.org/2000/svg">
<path fill-rule="evenodd" clip-rule="evenodd" d="M31.8799 6.16073C30.8629 6.62073 29.7439 6.89973 28.6479 7.08373C29.1679 6.99573 29.9359 6.05373 30.2429 5.67173C30.7109 5.09073 31.0999 4.42673 31.3189 3.71173C31.3469 3.65573 31.3689 3.58573 31.3129 3.54273C31.2429 3.51573 31.1969 3.52973 31.1409 3.55773C29.9275 4.20568 28.6378 4.69951 27.3019 5.02773C27.2556 5.04214 27.2062 5.04321 27.1593 5.03083C27.1125 5.01845 27.07 4.99311 27.0369 4.95773C26.9343 4.83458 26.8223 4.71957 26.7019 4.61373C26.1474 4.13603 25.5193 3.75107 24.8419 3.47373C23.9377 3.10749 22.9624 2.95024 21.9889 3.01373C21.0433 3.07802 20.1213 3.33855 19.2819 3.77873C18.4411 4.2183 17.6986 4.82464 17.0999 5.56073C16.4786 6.32501 16.0334 7.21683 15.7959 8.17273C15.5719 9.09273 15.5899 10.0007 15.7259 10.9297C15.7479 11.0837 15.7339 11.1047 15.5949 11.0837C10.3189 10.3007 5.94891 8.41273 2.39991 4.37073C2.24591 4.19473 2.16191 4.19473 2.03591 4.38373C0.482914 6.71173 1.23591 10.4507 3.17591 12.2887C3.43491 12.5337 3.69991 12.7787 3.98691 13.0017C3.88291 13.0237 2.59191 12.8837 1.44091 12.2887C1.28691 12.1917 1.20991 12.2477 1.19591 12.4217C1.18592 12.6745 1.19998 12.9276 1.23791 13.1777C1.53591 15.5377 3.16991 17.7197 5.40791 18.5717C5.67391 18.6827 5.96691 18.7817 6.25391 18.8297C5.74391 18.9417 5.21891 19.0217 3.75691 18.9077C3.57491 18.8717 3.50491 18.9627 3.57491 19.1377C4.67291 22.1327 7.04491 23.0237 8.82091 23.5307C9.05891 23.5727 9.29691 23.5727 9.53491 23.6287C9.52091 23.6497 9.50691 23.6497 9.49291 23.6707C8.90291 24.5687 6.86091 25.2377 5.90991 25.5707C4.17991 26.1747 2.29691 26.4467 0.467914 26.2667C0.175914 26.2237 0.113914 26.2267 0.034914 26.2667C-0.045086 26.3167 0.024914 26.3867 0.118914 26.4617C0.488914 26.7067 0.866914 26.9237 1.25191 27.1337C2.40786 27.75 3.62779 28.2379 4.88991 28.5887C11.4269 30.3937 18.7899 29.0677 23.6999 24.1907C27.5529 20.3607 28.9039 15.0797 28.9039 9.79073C28.9039 9.58473 29.1479 9.47073 29.2939 9.36073C30.2969 8.60773 31.0939 7.70573 31.8419 6.69873C32.0099 6.47273 31.9999 6.27173 31.9999 6.18873V6.16073C31.9999 6.07673 32.0099 6.10173 31.8799 6.16073Z" fill="#F1F1F1"/>
</svg>
