<svg width="32" height="32" viewBox="0 0 32 32" fill="none" xmlns="http://www.w3.org/2000/svg">
<path fill-rule="evenodd" clip-rule="evenodd" d="M31.8799 8.16073C30.8629 8.62073 29.7439 8.89973 28.6479 9.08373C29.1679 8.99573 29.9359 8.05373 30.2429 7.67173C30.7109 7.09073 31.0999 6.42673 31.3189 5.71173C31.3469 5.65573 31.3689 5.58573 31.3129 5.54273C31.2429 5.51573 31.1969 5.52973 31.1409 5.55773C29.9275 6.20568 28.6378 6.69951 27.3019 7.02773C27.2556 7.04214 27.2062 7.04321 27.1593 7.03083C27.1125 7.01845 27.07 6.99311 27.0369 6.95773C26.9343 6.83458 26.8223 6.71957 26.7019 6.61373C26.1474 6.13603 25.5193 5.75107 24.8419 5.47373C23.9377 5.10749 22.9624 4.95024 21.9889 5.01373C21.0433 5.07802 20.1213 5.33855 19.2819 5.77873C18.4411 6.2183 17.6986 6.82464 17.0999 7.56073C16.4786 8.32501 16.0334 9.21683 15.7959 10.1727C15.5719 11.0927 15.5899 12.0007 15.7259 12.9297C15.7479 13.0837 15.7339 13.1047 15.5949 13.0837C10.3189 12.3007 5.94891 10.4127 2.39991 6.37073C2.24591 6.19473 2.16191 6.19473 2.03591 6.38373C0.482914 8.71173 1.23591 12.4507 3.17591 14.2887C3.43491 14.5337 3.69991 14.7787 3.98691 15.0017C3.88291 15.0237 2.59191 14.8837 1.44091 14.2887C1.28691 14.1917 1.20991 14.2477 1.19591 14.4217C1.18592 14.6745 1.19998 14.9276 1.23791 15.1777C1.53591 17.5377 3.16991 19.7197 5.40791 20.5717C5.67391 20.6827 5.96691 20.7817 6.25391 20.8297C5.74391 20.9417 5.21891 21.0217 3.75691 20.9077C3.57491 20.8717 3.50491 20.9627 3.57491 21.1377C4.67291 24.1327 7.04491 25.0237 8.82091 25.5307C9.05891 25.5727 9.29691 25.5727 9.53491 25.6287C9.52091 25.6497 9.50691 25.6497 9.49291 25.6707C8.90291 26.5687 6.86091 27.2377 5.90991 27.5707C4.17991 28.1747 2.29691 28.4467 0.467914 28.2667C0.175914 28.2237 0.113914 28.2267 0.034914 28.2667C-0.045086 28.3167 0.024914 28.3867 0.118914 28.4617C0.488914 28.7067 0.866914 28.9237 1.25191 29.1337C2.40786 29.75 3.62779 30.2379 4.88991 30.5887C11.4269 32.3937 18.7899 31.0677 23.6999 26.1907C27.5529 22.3607 28.9039 17.0797 28.9039 11.7907C28.9039 11.5847 29.1479 11.4707 29.2939 11.3607C30.2969 10.6077 31.0939 9.70573 31.8419 8.69873C32.0099 8.47273 31.9999 8.27173 31.9999 8.18873V8.16073C31.9999 8.07673 32.0099 8.10173 31.8799 8.16073Z" fill="#141414"/>
</svg>
